<svg xmlns="http://www.w3.org/2000/svg" width="220.632" height="31.603" viewBox="0 0 220.632 31.603">
  <g id="Forza-Final-Logo" transform="translate(-194.082 -147.805)">
    <g id="Group_2" data-name="Group 2" transform="translate(194.082 147.805)">
      <g id="Group_1" data-name="Group 1" transform="translate(0 0)">
        <path id="Path_1" data-name="Path 1" d="M260.981,177.693h6.327a3.814,3.814,0,0,0,2.7-1.117l6.789-6.785,6.789,6.785a3.814,3.814,0,0,0,2.7,1.117H292.6l-15.811-15.8Zm-9.484,0a3.814,3.814,0,0,0,2.7-1.117l5.672-5.668a3.814,3.814,0,0,1,2.7-1.117h6.327l-7.905-7.9-15.811,15.8H251.5Zm41.1-15.8h0l-15.811-15.8-15.811,15.8h6.327a3.814,3.814,0,0,0,2.7-1.117l6.789-6.785,6.789,6.785a3.814,3.814,0,0,0,2.7,1.117h6.22l-7.853,7.848h6.327a3.814,3.814,0,0,1,2.7,1.117l5.672,5.668a3.814,3.814,0,0,0,2.7,1.117h6.327Z" transform="translate(-245.17 -146.09)" fill="#fff" fill-rule="evenodd"/>
      </g>
    </g>
    <g id="Group_3" data-name="Group 3" transform="translate(265.501 154.057)">
      <path id="Path_2" data-name="Path 2" d="M140.726,369.968H137.19V358.62h11.9v2.785h-8.359V363.5h7.913v2.628h-7.913v3.841Z" transform="translate(-137.19 -358.519)" fill="#fff"/>
      <path id="Path_3" data-name="Path 3" d="M184.843,361.239a3.518,3.518,0,0,1,.158-1.148,2.061,2.061,0,0,1,.593-.846,2.7,2.7,0,0,1,.838-.577,4.254,4.254,0,0,1,1.161-.288c.468-.057,1.028-.1,1.681-.109s1.665-.022,3.033-.022,2.377.008,3.033.022a15.639,15.639,0,0,1,1.667.109,4.109,4.109,0,0,1,1.14.288,2.734,2.734,0,0,1,.83.577,2.069,2.069,0,0,1,.593.846,3.518,3.518,0,0,1,.158,1.148v5.53a3.813,3.813,0,0,1-.158,1.17,2,2,0,0,1-.593.865,2.7,2.7,0,0,1-.846.555,4.676,4.676,0,0,1-1.17.288,16.873,16.873,0,0,1-1.725.122c-.683.019-1.676.03-2.973.03s-2.285-.008-2.959-.03a17.051,17.051,0,0,1-1.719-.122,4.385,4.385,0,0,1-1.156-.288,3.031,3.031,0,0,1-.838-.555,2.055,2.055,0,0,1-.593-.865,3.731,3.731,0,0,1-.158-1.17v-5.53Zm3.191,5.081a.543.543,0,0,0,.218.5,1.684,1.684,0,0,0,.824.136H195.5a1.508,1.508,0,0,0,.83-.18.536.536,0,0,0,.267-.454v-4.592a.607.607,0,0,0-.223-.549,1.677,1.677,0,0,0-.83-.144h-6.468a1.323,1.323,0,0,0-.8.188.614.614,0,0,0-.239.506v4.592Z" transform="translate(-171.879 -358.25)" fill="#fff"/>
      <path id="Path_4" data-name="Path 4" d="M255.248,363.494a1.12,1.12,0,0,0,.016-1.711,1.373,1.373,0,0,0-.909-.324h-5.62v8.519H245.2V358.63h9.414a9.432,9.432,0,0,1,1.991.174,3.178,3.178,0,0,1,1.3.571,2.282,2.282,0,0,1,.743,1.074,5.286,5.286,0,0,1,.239,1.719,6.909,6.909,0,0,1-.188,1.746,2.627,2.627,0,0,1-.593,1.14,2.359,2.359,0,0,1-1.074.634,5.882,5.882,0,0,1-1.681.2v.057l4.635,4.028h-3.928l-6.83-6.18h5.081A1.508,1.508,0,0,0,255.248,363.494Z" transform="translate(-215.82 -358.527)" fill="#fff"/>
      <path id="Path_5" data-name="Path 5" d="M315.593,367.284v2.685H302.15v-2.685l8.144-5.962H302.15v-2.7h13.443v2.7l-8.2,5.962h8.2Z" transform="translate(-257.279 -358.519)" fill="#fff"/>
      <path id="Path_6" data-name="Path 6" d="M359.2,368.034l-1.053,1.934H354.22l6.224-11.348h4.534l6.164,11.348h-3.928l-1.039-1.934Zm1.287-2.44h4.39l-2.2-4.086Z" transform="translate(-295.186 -358.519)" fill="#fff"/>
      <path id="Path_7" data-name="Path 7" d="M456.114,369.968h-2.383l-4.186-8.258H449.5v8.258H446.21V358.62h5.53l3.134,6.613.044.057,3.147-6.67h5.516v11.348H460.3V361.71h-.057Z" transform="translate(-367.153 -358.519)" fill="#fff"/>
      <path id="Path_8" data-name="Path 8" d="M529.245,367.327v2.641H516.8V358.62h12.447v2.628h-8.908v1.907H528.7v2.3h-8.359v1.877Z" transform="translate(-418.542 -358.519)" fill="#fff"/>
      <path id="Path_9" data-name="Path 9" d="M567.221,369.968h-.1V358.62h11.044a4.172,4.172,0,0,1,2.785.786,2.879,2.879,0,0,1,.909,2.3v5.168a2.879,2.879,0,0,1-.909,2.3,4.172,4.172,0,0,1-2.785.786H567.221Zm3.234-2.685h7.32a1.279,1.279,0,0,0,.759-.18.566.566,0,0,0,.239-.468V362a.564.564,0,0,0-.239-.471,1.267,1.267,0,0,0-.759-.179h-7.363v5.935h.044Z" transform="translate(-455.174 -358.519)" fill="#fff"/>
      <path id="Path_10" data-name="Path 10" d="M630.106,358.62v11.348H626.57V358.62Z" transform="translate(-498.454 -358.519)" fill="#fff"/>
      <path id="Path_11" data-name="Path 11" d="M646.891,368.034l-1.053,1.934H641.91l6.224-11.348h4.534l6.166,11.348h-3.928l-1.039-1.934Zm1.284-2.44h4.39l-2.2-4.086Z" transform="translate(-509.621 -358.519)" fill="#fff"/>
    </g>
    <g id="Group_4" data-name="Group 4" transform="translate(266.521 172.186)">
      <path id="Path_12" data-name="Path 12" d="M140.94,432.014V425.63h3a3.263,3.263,0,0,1,2.5.909,3.227,3.227,0,0,1,.86,2.279,3.042,3.042,0,0,1-3.365,3.2Zm2.954-1.2a1.749,1.749,0,0,0,1.368-.46,2.079,2.079,0,0,0,.588-1.526,2.053,2.053,0,0,0-.539-1.477,1.732,1.732,0,0,0-1.417-.509h-1.553v3.969h1.553Z" transform="translate(-140.94 -425.431)" fill="#fff"/>
      <path id="Path_13" data-name="Path 13" d="M186.442,425.63,183.91,429.1v2.913H182.5V429.1l-2.541-3.471H181.7l1.556,2.22,1.545-2.22Z" transform="translate(-169.346 -425.431)" fill="#fff"/>
      <path id="Path_14" data-name="Path 14" d="M227.875,425.63v6.384h-1.213l-3.245-3.95h-.011v3.95H222V425.63h1.2l3.256,3.96h.011v-3.96Z" transform="translate(-199.951 -425.431)" fill="#fff"/>
      <path id="Path_15" data-name="Path 15" d="M265.062,425.63h1.2l2.962,6.384h-1.534l-.587-1.349h-2.951l-.577,1.349H262.1Zm-.432,3.93h1.994l-.968-2.258h-.06Z" transform="translate(-229.143 -425.431)" fill="#fff"/>
      <path id="Path_16" data-name="Path 16" d="M312.209,432.014v-3.7h-.049l-1.79,2.981h-.392l-1.79-2.981h-.049v3.7h-1.36V425.63h1.338l2.092,3.5h.019l2.084-3.5h1.3v6.384Z" transform="translate(-261.67 -425.431)" fill="#fff"/>
      <path id="Path_17" data-name="Path 17" d="M353.68,432.014V425.63h1.4v6.384Z" transform="translate(-295.812 -425.431)" fill="#fff"/>
      <path id="Path_18" data-name="Path 18" d="M385.385,430.375a4.758,4.758,0,0,1-3.245,1.311,3.39,3.39,0,1,1-.049-6.776,4.9,4.9,0,0,1,3.09,1.115l-.881.919a3.4,3.4,0,0,0-2.092-.821,2.181,2.181,0,0,0,.049,4.36,3.282,3.282,0,0,0,2.239-1.017Z" transform="translate(-313.969 -424.907)" fill="#fff"/>
      <path id="Path_19" data-name="Path 19" d="M464.36,432.014V425.63h3a3.263,3.263,0,0,1,2.5.909,3.227,3.227,0,0,1,.86,2.279,3.042,3.042,0,0,1-3.365,3.2Zm2.951-1.2a1.749,1.749,0,0,0,1.368-.46,2.079,2.079,0,0,0,.588-1.526,2.053,2.053,0,0,0-.539-1.477,1.732,1.732,0,0,0-1.417-.509h-1.556v3.969h1.556Z" transform="translate(-384.386 -425.431)" fill="#fff"/>
      <path id="Path_20" data-name="Path 20" d="M507.69,432.014V425.63h3.539a2.5,2.5,0,0,1,1.918.694,1.9,1.9,0,0,1,.528,1.319,1.953,1.953,0,0,1-1.292,1.8l1.5,2.57h-1.6l-1.289-2.347h-1.9v2.347h-1.4Zm1.4-5.2v1.673h2.288a.851.851,0,0,0,.889-.841.776.776,0,0,0-.226-.558.955.955,0,0,0-.762-.275Z" transform="translate(-415.93 -425.431)" fill="#fff"/>
      <path id="Path_21" data-name="Path 21" d="M553.834,429.286h-2.356v1.526h4.145v1.2H550.08V425.63H555.4v1.213h-3.92v1.24h2.356Z" transform="translate(-446.79 -425.431)" fill="#fff"/>
      <path id="Path_22" data-name="Path 22" d="M589.692,425.63h1.2l2.962,6.384h-1.534l-.587-1.349h-2.951l-.577,1.349H586.73Zm-.43,3.93h1.994l-.968-2.258h-.06Z" transform="translate(-473.47 -425.431)" fill="#fff"/>
      <path id="Path_23" data-name="Path 23" d="M636.849,432.014v-3.7H636.8l-1.79,2.981h-.392l-1.79-2.981h-.049v3.7h-1.36V425.63h1.338l2.092,3.5h.019l2.084-3.5h1.3v6.384Z" transform="translate(-506.004 -425.431)" fill="#fff"/>
      <path id="Path_24" data-name="Path 24" d="M681.081,426.742a3.872,3.872,0,0,0-2.239-.685c-.636,0-1.2.234-1.2.781,0,.569.841.607,1.673.675,1.164.079,2.981.215,2.981,1.975,0,1.575-1.311,2.19-2.875,2.19a5.358,5.358,0,0,1-3.509-1.262l.792-.957a4.321,4.321,0,0,0,2.736,1.074c.811,0,1.455-.313,1.455-.908,0-.615-.656-.754-1.613-.832-1.4-.087-3.041-.245-3.041-1.866,0-1.545,1.436-2.024,2.641-2.024a5.657,5.657,0,0,1,3,.86Z" transform="translate(-538.393 -424.9)" fill="#fff"/>
    </g>
  </g>
</svg>
